# xmcd CD database file
#
# Track frame offsets:
#	150
#	21446
#	51907
#	74329
#	97570
#	118530
#	145503
#	168353
#	194611
#	211783
#
# Disc length: 3153 seconds
#
# Revision: 0
# Processed by: cddbd v1.5.1PL0 Copyright (c) Steve Scherf et al.
# Submitted via: CDex 1.50beta9
#
DISCID=840c4f0a
DTITLE=Jason Kernoham - Irish Favourites
DYEAR=1900
DGENRE=Country
TTITLE0=Medley - Heartaches By The Number-Brigt Lights And Country Music-Four Country Roads-A Good Hearted Woman
TTITLE1=Medley - Deepening Snow-My Donegal-Old Rustic Bridge By The Mill-Johnny Dear
TTITLE2=Medley - Broken Speed In The Sound OfLoneliness-Tipperary On My Mind-Pick Me Up On Your Way Down-SunnySide Of The Mountain
TTITLE3=Among The Wicklow Hills-She Thinks I Still Care-Waking Piece Of Heaven
TTITLE4=Medley - Turn Out Lights And Love Me Tonight-Roseville Fair-I'm Just Lucky I Guess-Back On My Mind
TTITLE5=Medley - A Mothers Love's A Blessing-Old Flames-Irish Harvest Day-I'll Be There Maggie Dear
TTITLE6=Medley - Jambalaya-On My Mind-Pretty Little Girl From Omagh-That Was Before I Met You
TTITLE7=Medley - Send Me The Pill Ow the You Dream On-Day Dream Believer-Wild Side Of Life- Have I Told You Lately That I Love You
TTITLE8=I Still Miss Someone-Cotage By The Sea-Hello Mary Lou
TTITLE9=Medley - Fields Of Athenry-Maggie-After All These Years-Come By The Hills
EXTD=
EXTT0=
EXTT1=
EXTT2=
EXTT3=
EXTT4=
EXTT5=
EXTT6=
EXTT7=
EXTT8=
EXTT9=
PLAYORDER=
